# xmcd
#
# Track frame offsets:
# 150
# 22595
# 43595
# 60318
# 79413
# 104727
# 126176
# 143608
# 168762
# 184337
# 202833
# 221519
# 235216
# 252654
# 259793
# 276103
#
# Disc length: 3910 seconds
#
# Revision: 0
# Processed by: cddbd v1.5.1PL2 Copyright (c) Steve Scherf et al.
# Submitted via: Audion 3.0.2 (http://www.panic.com/audion/)
#
DISCID=df0f4410
DTITLE=Kevin Johansen - The Nada
DYEAR=1900
DGENRE=
TTITLE0=Guacamole
TTITLE1=En mi cabeza
TTITLE2=You're the Bossa
TTITLE3=Soñé
TTITLE4=No me abandones
TTITLE5=Ni idea
TTITLE6=Campo argentino
TTITLE7=Living in a story
TTITLE8=McGuevara's o CheDonlad's
TTITLE9=Heat of the moment
TTITLE10=So lazy
TTITLE11=El círculo
TTITLE12=El de la puerta
TTITLE13=Sombrero song
TTITLE14=Hotel California (carnavalito version)
TTITLE15=Obedicencia debida (by instrucción cívica)
EXTD=
EXTT0=
EXTT1=
EXTT2=
EXTT3=
EXTT4=
EXTT5=
EXTT6=
EXTT7=
EXTT8=
EXTT9=
EXTT10=
EXTT11=
EXTT12=
EXTT13=
EXTT14=
EXTT15=
PLAYORDER=
